<svg version="1.1" xmlns="http://www.w3.org/2000/svg" viewBox="81.6 85 29.1 29.1">
<g id="HD">
	<rect x="81.6" y="85" fill="#E45E49" width="29.1" height="29.1"/>
	<g>
		<path fill="#FFFFFF" d="M95.9,99.5h-1.7l0.7-3.7h-2.5l-0.7,3.7h-1.7l1.8-8.8h1.7l-0.8,3.8h2.5l0.8-3.8h1.7L95.9,99.5z"/>
		<path fill="#FFFFFF" d="M97.2,99.5l1.8-8.8h2.4c0.8,0,1.5,0.4,2,1.1c0.5,0.7,0.6,1.6,0.4,2.7l-0.3,1.5c-0.2,1.2-0.7,2-1.3,2.7
			c-0.6,0.6-1.4,0.9-2.3,0.9C99.9,99.5,97.2,99.5,97.2,99.5z M100.4,92.1l-1.2,6.1h0.9c0.4,0,0.7-0.2,1-0.6c0.3-0.4,0.5-0.9,0.6-1.6
			l0.3-1.5c0.1-0.7,0.1-1.3-0.1-1.7c-0.2-0.4-0.5-0.6-1-0.6L100.4,92.1L100.4,92.1z"/>
	</g>
	<g>
		<path fill="#FFFFFF" d="M94,102.1c-0.8,0.9-1.4,1.8-1.7,2.6c-0.3,0.8-0.7,1.9-1,3.3l-0.2,0.8h-1.5l0.2-0.8
			c0.3-1.2,0.7-2.3,1.1-3.3c0.5-1,1-1.8,1.7-2.7h-3.1l0.2-1.2h4.6L94,102.1z"/>
		<path fill="#FFFFFF" d="M98.3,108.8h-4.5l0.2-1l2.5-2.7c0.3-0.4,0.6-0.8,0.7-1c0.2-0.3,0.3-0.6,0.3-0.8c0.1-0.3,0-0.6,0-0.8
			c-0.1-0.2-0.2-0.3-0.5-0.3c-0.2,0-0.4,0.1-0.6,0.4c-0.2,0.3-0.3,0.6-0.3,1h-1.5v0c0.1-0.7,0.4-1.3,0.9-1.8c0.5-0.5,1-0.7,1.7-0.7
			c0.7,0,1.2,0.2,1.5,0.6c0.3,0.4,0.4,1,0.3,1.7c-0.1,0.5-0.3,0.9-0.5,1.3c-0.3,0.4-0.7,0.9-1.3,1.6l-1.1,1.4v0h2.5L98.3,108.8z"/>
		<path fill="#FFFFFF" d="M104.1,105.7c-0.2,1.1-0.6,1.9-1.1,2.5c-0.5,0.5-1.1,0.8-1.8,0.8c-0.6,0-1.1-0.3-1.4-0.8
			c-0.3-0.5-0.4-1.3-0.2-2.4l0.3-1.7c0.2-1.1,0.6-1.9,1.1-2.5c0.5-0.5,1.1-0.8,1.8-0.8c0.6,0,1.1,0.3,1.4,0.8
			c0.3,0.6,0.4,1.3,0.2,2.4L104.1,105.7z M102.9,103.8c0.1-0.7,0.2-1.1,0.1-1.4c-0.1-0.3-0.2-0.4-0.4-0.4h0c-0.2,0-0.4,0.1-0.6,0.4
			c-0.2,0.3-0.3,0.8-0.5,1.4l-0.4,1.9c-0.1,0.7-0.2,1.2-0.1,1.4c0.1,0.3,0.2,0.4,0.4,0.4h0c0.2,0,0.4-0.1,0.6-0.4
			c0.2-0.3,0.3-0.8,0.5-1.4L102.9,103.8z"/>
	</g>
</g>
</svg>
