<?xml version="1.0" encoding="utf-8"?>
<!-- Generator: Adobe Illustrator 17.1.0, SVG Export Plug-In . SVG Version: 6.00 Build 0)  -->
<!DOCTYPE svg PUBLIC "-//W3C//DTD SVG 1.1//EN" "http://www.w3.org/Graphics/SVG/1.1/DTD/svg11.dtd">
<svg version="1.1" id="Слой_1" xmlns="http://www.w3.org/2000/svg" xmlns:xlink="http://www.w3.org/1999/xlink" x="0px" y="0px"
	 viewBox="10.2 106.8 200 200" enable-background="new 10.2 106.8 200 200" xml:space="preserve">
<g id="Слой_10">
	<g id="_x2B_">
		<circle fill="#559730" cx="110.2" cy="206.8" r="100"/>
		<g id="Your_Icon_2_">
			<g>
				<path fill="#FFFFFF" d="M132.2,168.7c-11,0-16.9,5.9-20.3,11.9c-3.4-5.1-9.3-11.9-21.2-11.9c-16.9,0-28,12.7-28,33.1
					c0,31.4,43.2,59.3,44.9,60.2c0.8,0.8,2.5,0.8,3.4,0.8c0.8,0,2.5,0,3.4-0.8c1.7-0.8,44.9-28,44.9-60.2
					C160.2,182.2,149.2,168.7,132.2,168.7z M111,248.3c-12.7-8.5-35.6-28-35.6-45.8c0-16.9,9.3-19.5,14.4-19.5c6.8,0,8.5,3.4,11,9.3
					c1.7,2.5,2.5,5.1,5.1,7.6c2.5,1.7,5.9,1.7,8.5,0c2.5-1.7,3.4-4.2,5.1-7.6c3.4-5.9,5.1-9.3,11-9.3c5.1,0,14.4,2.5,14.4,19.5
					C146.6,220.4,123.8,239.9,111,248.3z"/>
			</g>
		</g>
	</g>
</g>
</svg>
