<?xml version="1.0" encoding="utf-8"?>
<!-- Generator: Adobe Illustrator 17.1.0, SVG Export Plug-In . SVG Version: 6.00 Build 0)  -->
<!DOCTYPE svg PUBLIC "-//W3C//DTD SVG 1.1//EN" "http://www.w3.org/Graphics/SVG/1.1/DTD/svg11.dtd">
<svg version="1.1" id="Слой_1" xmlns="http://www.w3.org/2000/svg" xmlns:xlink="http://www.w3.org/1999/xlink" x="0px" y="0px"
	 viewBox="28.7 -5.2 199.7 200" enable-background="new 28.7 -5.2 199.7 200" xml:space="preserve">
<rect x="66" y="69.8" fill="#C2553F" width="25.1" height="25.1"/>
<rect x="116.2" y="119.8" fill="#C2553F" width="25.1" height="25.1"/>
<rect x="166.1" y="69.8" fill="#C2553F" width="25.1" height="25.1"/>
<path fill="#C2553F" d="M78.7,32.3V7.2c0-7,5.7-12.4,12.4-12.4c7,0,12.4,5.7,12.4,12.4v25.1c0,7-5.7,12.4-12.4,12.4
	C84.3,44.7,78.7,39.3,78.7,32.3z"/>
<polygon fill="#C2553F" points="228.5,194.8 28.7,194.8 28.7,19.9 53.6,19.9 53.6,169.7 203.6,169.7 203.6,19.9 228.5,19.9 "/>
<rect x="116.2" y="69.8" fill="#C2553F" width="25.1" height="25.1"/>
<rect x="66" y="119.8" fill="#C2553F" width="25.1" height="25.1"/>
<polygon fill="#C2553F" points="166.1,144.9 166.1,119.8 190.9,119.8 "/>
<path fill="#C2553F" d="M153.7,32.3V7.2c0-7,5.7-12.4,12.4-12.4c7,0,12.4,5.7,12.4,12.4v25.1c0,7-5.7,12.4-12.4,12.4
	C159.1,44.7,153.7,39.3,153.7,32.3z"/>
</svg>
