<?xml version="1.0" encoding="utf-8"?>
<!-- Generator: Adobe Illustrator 17.1.0, SVG Export Plug-In . SVG Version: 6.00 Build 0)  -->
<!DOCTYPE svg PUBLIC "-//W3C//DTD SVG 1.1//EN" "http://www.w3.org/Graphics/SVG/1.1/DTD/svg11.dtd">
<svg version="1.1" id="Слой_1" xmlns="http://www.w3.org/2000/svg" xmlns:xlink="http://www.w3.org/1999/xlink" x="0px" y="0px"
	 viewBox="28.6 -5.2 200 200" enable-background="new 28.6 -5.2 200 200" xml:space="preserve">
<path fill="#C2553F" d="M128.6,19.9c41.4,0,75.1,33.8,75.1,75.1s-33.8,74.9-75.1,74.9s-75.1-33.5-75.1-75.1S87.2,19.9,128.6,19.9
	 M128.6-5.2c-55.4,0-100,44.9-100,100s44.9,100,100,100s100-44.9,100-100S183.7-5.2,128.6-5.2L128.6-5.2z"/>
<path fill="#C2553F" d="M162.4,111L141,89.7V44.8h-25.1v50c0,3.8,1.6,7,4.3,9.5l24.6,24.6L162.4,111z"/>
</svg>
