<svg version="1.1" xmlns="http://www.w3.org/2000/svg" viewBox="119.1 85.1 29.1 29.1">
<g id="_x33_D">
	<rect x="119.1" y="85.1" fill="#327FDD" width="29.1" height="29.1"/>
	<g>
		<g>
			<path fill="#FF7FDF" d="M128.5,98.6h1.2c0.4,0,0.7-0.1,0.9-0.4c0.2-0.3,0.3-0.7,0.3-1.2c0-0.5-0.1-0.8-0.3-1.1
				c-0.2-0.3-0.5-0.4-0.9-0.4c-0.3,0-0.6,0.1-0.8,0.4c-0.2,0.3-0.3,0.6-0.3,1h-2.3v0c0-0.9,0.3-1.7,0.9-2.3c0.6-0.6,1.4-0.9,2.4-0.9
				c1.1,0,1.9,0.3,2.6,0.9c0.6,0.6,1,1.4,1,2.5c0,0.5-0.1,1-0.4,1.5c-0.3,0.5-0.7,0.8-1.1,1.1c0.6,0.2,1,0.6,1.3,1.1
				s0.4,1.1,0.4,1.7c0,1.1-0.3,1.9-1,2.6c-0.7,0.6-1.6,0.9-2.7,0.9c-0.9,0-1.8-0.3-2.5-0.9c-0.7-0.6-1-1.4-1-2.5v0h2.3
				c0,0.5,0.1,0.8,0.4,1.1s0.5,0.4,0.9,0.4c0.4,0,0.7-0.2,1-0.5c0.2-0.3,0.4-0.7,0.4-1.2c0-0.6-0.1-1.1-0.3-1.4
				c-0.2-0.3-0.6-0.4-1-0.4h-1.2L128.5,98.6L128.5,98.6z"/>
			<path fill="#FF7FDF" d="M135,105.6V93.7h3.6c1.2,0,2.3,0.5,3,1.4c0.8,0.9,1.2,2.1,1.2,3.6v2c0,1.4-0.4,2.7-1.2,3.6
				c-0.8,0.9-1.8,1.4-3,1.4C138.6,105.6,135,105.6,135,105.6z M137.3,95.5v8.2h1.1c0.6,0,1.1-0.3,1.5-0.8c0.3-0.6,0.5-1.3,0.5-2.3
				v-2c0-0.9-0.2-1.7-0.5-2.3c-0.4-0.6-0.8-0.8-1.5-0.8L137.3,95.5L137.3,95.5z"/>
		</g>
	</g>
	<g>
		<path fill="#32E1DD" d="M126.9,98.6h1.2c0.4,0,0.7-0.1,0.9-0.4c0.2-0.3,0.3-0.7,0.3-1.2c0-0.5-0.1-0.8-0.3-1.1
			c-0.2-0.3-0.5-0.4-0.9-0.4c-0.3,0-0.6,0.1-0.8,0.4c-0.2,0.3-0.3,0.6-0.3,1h-2.3v0c0-0.9,0.3-1.7,0.9-2.3c0.6-0.6,1.4-0.9,2.4-0.9
			c1.1,0,1.9,0.3,2.6,0.9c0.6,0.6,1,1.4,1,2.5c0,0.5-0.1,1-0.4,1.5c-0.3,0.5-0.7,0.8-1.1,1.1c0.6,0.2,1,0.6,1.3,1.1s0.4,1.1,0.4,1.7
			c0,1.1-0.3,1.9-1,2.6c-0.7,0.6-1.6,0.9-2.7,0.9c-0.9,0-1.8-0.3-2.5-0.9c-0.7-0.6-1-1.4-1-2.5v0h2.3c0,0.5,0.1,0.8,0.4,1.1
			c0.2,0.3,0.5,0.4,0.9,0.4c0.4,0,0.7-0.2,1-0.5c0.2-0.3,0.4-0.7,0.4-1.2c0-0.6-0.1-1.1-0.3-1.4c-0.2-0.3-0.6-0.4-1-0.4h-1.2
			L126.9,98.6L126.9,98.6z"/>
		<path fill="#32E1DD" d="M133.3,105.6V93.7h3.6c1.2,0,2.3,0.5,3,1.4c0.8,0.9,1.2,2.1,1.2,3.6v2c0,1.4-0.4,2.7-1.2,3.6
			c-0.8,0.9-1.8,1.4-3,1.4C136.9,105.6,133.3,105.6,133.3,105.6z M135.7,95.5v8.2h1.1c0.6,0,1.1-0.3,1.5-0.8
			c0.3-0.6,0.5-1.3,0.5-2.3v-2c0-0.9-0.2-1.7-0.5-2.3c-0.4-0.6-0.8-0.8-1.5-0.8L135.7,95.5L135.7,95.5z"/>
	</g>
	<g>
		<g>
			<path fill="#FFFFFF" d="M127.6,98.6h1.2c0.4,0,0.7-0.1,0.9-0.4c0.2-0.3,0.3-0.7,0.3-1.2c0-0.5-0.1-0.8-0.3-1.1
				c-0.2-0.3-0.5-0.4-0.9-0.4c-0.3,0-0.6,0.1-0.8,0.4c-0.2,0.3-0.3,0.6-0.3,1h-2.3v0c0-0.9,0.3-1.7,0.9-2.3c0.6-0.6,1.4-0.9,2.4-0.9
				c1.1,0,1.9,0.3,2.6,0.9c0.6,0.6,1,1.4,1,2.5c0,0.5-0.1,1-0.4,1.5c-0.3,0.5-0.7,0.8-1.1,1.1c0.6,0.2,1,0.6,1.3,1.1
				c0.3,0.5,0.4,1.1,0.4,1.7c0,1.1-0.3,1.9-1,2.6c-0.7,0.6-1.6,0.9-2.7,0.9c-0.9,0-1.8-0.3-2.5-0.9c-0.7-0.6-1-1.4-1-2.5v0h2.3
				c0,0.5,0.1,0.8,0.4,1.1s0.5,0.4,0.9,0.4c0.4,0,0.7-0.2,1-0.5c0.2-0.3,0.4-0.7,0.4-1.2c0-0.6-0.1-1.1-0.3-1.4
				c-0.2-0.3-0.6-0.4-1-0.4h-1.2L127.6,98.6L127.6,98.6z"/>
			<path fill="#FFFFFF" d="M134,105.6V93.7h3.6c1.2,0,2.3,0.5,3,1.4c0.8,0.9,1.2,2.1,1.2,3.6v2c0,1.4-0.4,2.7-1.2,3.6
				c-0.8,0.9-1.8,1.4-3,1.4C137.6,105.6,134,105.6,134,105.6z M136.4,95.5v8.2h1.1c0.6,0,1.1-0.3,1.5-0.8c0.3-0.6,0.5-1.3,0.5-2.3
				v-2c0-0.9-0.2-1.7-0.5-2.3c-0.4-0.6-0.8-0.8-1.5-0.8L136.4,95.5L136.4,95.5z"/>
		</g>
	</g>
</g>
</svg>
