<svg version="1.1" xmlns="http://www.w3.org/2000/svg" viewBox="10.2 47.8 23.5 23.5">
<g id="Слой_10">
	<g id="i">
		<g id="ICON_1_">
			<g>
				<path fill="#797979" d="M24.4,55.1c0.3-0.3,0.5-0.7,0.5-1.1c0-0.4-0.2-0.8-0.5-1.1c-0.3-0.3-0.7-0.5-1.2-0.5
					c-0.5,0-0.9,0.2-1.2,0.5c-0.3,0.3-0.5,0.7-0.5,1.1s0.2,0.8,0.5,1.1c0.3,0.3,0.7,0.5,1.2,0.5C23.6,55.5,24,55.4,24.4,55.1z
					 M23.6,65.7c0.6-0.3,0.9-0.8,0.6-1.1c-0.2-0.1-0.4,0.1-0.6,0.1c-0.4,0-0.6-0.1-0.8-0.2c-0.2-0.1-0.2-0.4-0.2-0.7
					c0-0.1,0-0.3,0.1-0.6c0-0.3,0.1-0.5,0.2-0.7l0.7-2.6c0.1-0.2,0.1-0.5,0.1-0.8c0-0.3,0-0.5,0-0.6c0-0.5-0.2-1-0.6-1.3
					c-0.4-0.3-0.9-0.5-1.6-0.5c-0.4,0-0.8,0.1-1.2,0.2c-0.8,0.3-0.7,1-0.5,1c0.4,0,0.6,0.1,0.8,0.2c0.1,0.1,0.2,0.4,0.2,0.7
					c0,0.2,0,0.4-0.1,0.6c0,0.2-0.1,0.5-0.2,0.7l-0.7,2.6c-0.1,0.3-0.1,0.5-0.1,0.7c0,0.2,0,0.4,0,0.6c0,0.5,0.2,1,0.6,1.3
					c0.4,0.3,1,0.7,1.7,0.7C22.4,66.1,23,65.9,23.6,65.7z"/>
			</g>
		</g>
	</g>
</g>
</svg>
