<svg version="1.1" xmlns="http://www.w3.org/2000/svg" viewBox="46.1 85 29.1 29.1">
<g id="mobile">
	<g>
		<g>
			<g>
				<rect x="46.1" y="85" fill="#60F6ED" width="29.1" height="29.1"/>
			</g>
			<path fill="#2D6A87" d="M71.8,90.9c-0.2-0.6-0.9-1-1.5-0.8l-1.5,0.5v2.6l2.3-0.7C71.7,92.3,72,91.6,71.8,90.9z"/>
			<path fill="#2D6A87" d="M58.5,104v-1.3l0,0c0,0,0,0,0,0v-0.2c0-0.4-0.1-1.3-0.8-2.7c-0.3-0.7-1-1.3-1.3-1.6l1.9-3.9
				c0.4-0.8,0-1.7-0.7-2.1c-0.8-0.4-1-0.1-1.5,0.7l-3.1,5.2v0L52.4,99l1.1,6.9l-3.8,6.4h9.5l1.9-3.1c0.8-0.1,2.7-0.7,4.7-2.6
				c0.2-0.2,0.3-0.4,0.5-0.6h-5.8C59.3,106,58.5,105.1,58.5,104z"/>
			<path fill="#2D6A87" d="M70.5,94.3h-1.7v2.4h1.7c0.7,0,1.2-0.5,1.2-1.2C71.7,94.9,71.1,94.3,70.5,94.3z"/>
			<path fill="#2D6A87" d="M69.8,97.2h-1v2.4h1c0.7,0,1.2-0.5,1.2-1.2C71,97.8,70.5,97.2,69.8,97.2z"/>
			<path fill="#2D6A87" d="M69.2,100.1h-0.4v2.4h0.4c0.7,0,1.2-0.5,1.2-1.2C70.4,100.6,69.8,100.1,69.2,100.1z"/>
		</g>
	</g>
	<path fill="#2D6A87" d="M67.5,102.9h-7.6v-14h7.6V102.9z M63.7,104.7c-0.3,0-0.5-0.2-0.5-0.5c0-0.3,0.2-0.5,0.5-0.5
		c0.3,0,0.5,0.2,0.5,0.5C64.2,104.5,64,104.7,63.7,104.7z M62.9,88h1.6c0.1,0,0.2,0.1,0.2,0.2c0,0.1-0.1,0.2-0.2,0.2h-1.6
		c-0.1,0-0.2-0.1-0.2-0.2C62.7,88.1,62.8,88,62.9,88z M66.9,87.5h-6.3c-0.8,0-1.4,0.6-1.4,1.4V104c0,0.8,0.6,1.4,1.4,1.4h6.3
		c0.8,0,1.4-0.6,1.4-1.4V89C68.3,88.2,67.7,87.5,66.9,87.5z"/>
</g>
</svg>
